<?xml version="1.0" encoding="UTF-8"?>
<!DOCTYPE svg PUBLIC "-//W3C//DTD SVG 1.1//EN" "http://www.w3.org/Graphics/SVG/1.1/DTD/svg11.dtd">
<svg xmlns="http://www.w3.org/2000/svg" version="1.1" width="2000px" height="1500px" style="shape-rendering:geometricPrecision; text-rendering:geometricPrecision; image-rendering:optimizeQuality; fill-rule:evenodd; clip-rule:evenodd" xmlns:xlink="http://www.w3.org/1999/xlink">
<g><path style="opacity:1" fill="#fefefe" d="M -0.5,-0.5 C 666.167,-0.5 1332.83,-0.5 1999.5,-0.5C 1999.5,499.5 1999.5,999.5 1999.5,1499.5C 1332.83,1499.5 666.167,1499.5 -0.5,1499.5C -0.5,999.5 -0.5,499.5 -0.5,-0.5 Z"/></g>
<g><path style="opacity:1" fill="#144168" d="M 1470.5,499.5 C 1559.77,493.07 1633.6,523.403 1692,590.5C 1751.44,667.981 1764.11,752.648 1730,844.5C 1689.65,934.498 1620.48,985.998 1522.5,999C 1436.25,1005.44 1364.42,976.608 1307,912.5C 1253.12,845.453 1235.78,769.786 1255,685.5C 1283.65,591.186 1345.48,531.02 1440.5,505C 1450.59,502.836 1460.59,501.003 1470.5,499.5 Z"/></g>
<g><path style="opacity:1" fill="#fefefe" d="M 1476.5,517.5 C 1563.92,513.305 1634.09,545.638 1687,614.5C 1734.36,685.012 1742.69,760.012 1712,839.5C 1676.83,916.986 1617.33,963.486 1533.5,979C 1433.73,989.891 1355.89,954.058 1300,871.5C 1262.64,806.906 1255.97,739.239 1280,668.5C 1316.67,580.737 1382.17,530.404 1476.5,517.5 Z"/></g>
<g><path style="opacity:1" fill="#7590a6" d="M 388.5,646.5 C 388.5,714.167 388.5,781.833 388.5,849.5C 395.5,849.5 402.5,849.5 409.5,849.5C 402.352,850.492 395.019,850.825 387.5,850.5C 387.167,782.331 387.501,714.331 388.5,646.5 Z"/></g>
<g><path style="opacity:1" fill="#144068" d="M 388.5,646.5 C 396.167,646.5 403.833,646.5 411.5,646.5C 411.333,671.502 411.5,696.502 412,721.5C 422.548,706.198 437.048,700.698 455.5,705C 471.543,709.375 482.043,719.542 487,735.5C 490.894,749.372 492.394,763.539 491.5,778C 492.407,792.118 490.907,805.952 487,819.5C 478.927,844.549 461.76,855.382 435.5,852C 424.649,849.331 416.482,843.164 411,833.5C 409.729,838.754 409.229,844.087 409.5,849.5C 402.5,849.5 395.5,849.5 388.5,849.5C 388.5,781.833 388.5,714.167 388.5,646.5 Z"/></g>
<g><path style="opacity:1" fill="#154168" d="M 1548.5,662.5 C 1563.89,659.994 1572.23,666.327 1573.5,681.5C 1574.18,695.651 1568.51,706.151 1556.5,713C 1552.03,715.142 1547.36,715.809 1542.5,715C 1537.19,710.571 1537.19,706.237 1542.5,702C 1546.38,701.743 1550.04,700.743 1553.5,699C 1538.64,694.439 1534.14,684.939 1540,670.5C 1542.54,667.488 1545.37,664.821 1548.5,662.5 Z"/></g>
<g><path style="opacity:1" fill="#154169" d="M 1595.5,662.5 C 1610.9,660.324 1618.9,666.824 1619.5,682C 1619.81,700.664 1610.98,711.831 1593,715.5C 1586.61,715.113 1583.94,711.779 1585,705.5C 1585.5,703.667 1586.67,702.5 1588.5,702C 1592.38,701.743 1596.04,700.743 1599.5,699C 1586.63,695.764 1581.46,687.597 1584,674.5C 1585.08,672.004 1586.41,669.67 1588,667.5C 1590.48,665.686 1592.98,664.019 1595.5,662.5 Z"/></g>
<g><path style="opacity:1" fill="#889fb3" d="M 819.5,672.5 C 811.833,672.5 804.167,672.5 796.5,672.5C 796.828,684.012 796.495,695.346 795.5,706.5C 795.5,694.833 795.5,683.167 795.5,671.5C 803.684,671.174 811.684,671.508 819.5,672.5 Z"/></g>
<g><path style="opacity:1" fill="#134068" d="M 819.5,672.5 C 819.5,683.833 819.5,695.167 819.5,706.5C 826.5,706.5 833.5,706.5 840.5,706.5C 840.5,712.833 840.5,719.167 840.5,725.5C 833.5,725.5 826.5,725.5 819.5,725.5C 819.333,757.835 819.5,790.168 820,822.5C 820.668,826.499 822.835,829.332 826.5,831C 831.194,831.564 835.86,831.397 840.5,830.5C 840.666,836.842 840.5,843.175 840,849.5C 817.68,857.508 803.347,850.174 797,827.5C 796.5,793.502 796.333,759.502 796.5,725.5C 789.167,725.5 781.833,725.5 774.5,725.5C 774.5,719.167 774.5,712.833 774.5,706.5C 781.5,706.5 788.5,706.5 795.5,706.5C 796.495,695.346 796.828,684.012 796.5,672.5C 804.167,672.5 811.833,672.5 819.5,672.5 Z"/></g>
<g><path style="opacity:1" fill="#eceff2" d="M 1553.5,675.5 C 1559.26,675.783 1560.93,678.616 1558.5,684C 1550.21,684.89 1548.54,682.057 1553.5,675.5 Z"/></g>
<g><path style="opacity:1" fill="#e7ebef" d="M 1599.5,675.5 C 1605.75,675.882 1607.42,678.715 1604.5,684C 1596.21,684.89 1594.54,682.057 1599.5,675.5 Z"/></g>
<g><path style="opacity:1" fill="#18426a" d="M 1407.5,685.5 C 1420.17,685.333 1432.84,685.5 1445.5,686C 1474.25,691.09 1489.09,708.257 1490,737.5C 1494.59,745.004 1498.92,752.671 1503,760.5C 1507.86,774.429 1503.69,784.429 1490.5,790.5C 1489.93,797.581 1489.1,804.581 1488,811.5C 1487.1,812.701 1485.93,813.535 1484.5,814C 1479.5,814.333 1474.5,814.667 1469.5,815C 1468,821.136 1466.5,827.302 1465,833.5C 1464.17,835 1463,836.167 1461.5,837C 1435.08,837.982 1408.75,837.648 1382.5,836C 1380.17,834.667 1379.17,832.667 1379.5,830C 1381.82,820.608 1382.98,811.108 1383,801.5C 1380.54,798.035 1377.7,794.869 1374.5,792C 1354.72,780.391 1347.56,763.224 1353,740.5C 1353.12,722.102 1360.28,707.269 1374.5,696C 1385.01,690.55 1396.01,687.05 1407.5,685.5 Z"/></g>
<g><path style="opacity:1" fill="#fdfdfe" d="M 1406.5,699.5 C 1419.5,699.333 1432.5,699.5 1445.5,700C 1459.82,702.067 1469.32,709.9 1474,723.5C 1475.12,729.103 1475.79,734.769 1476,740.5C 1480.92,748.672 1485.59,757.005 1490,765.5C 1492.38,774.464 1488.88,778.631 1479.5,778C 1478,778.833 1476.83,780 1476,781.5C 1475.5,787.825 1475.33,794.158 1475.5,800.5C 1470.49,800.334 1465.49,800.501 1460.5,801C 1458.95,802.214 1457.78,803.714 1457,805.5C 1456.15,811.244 1454.98,816.91 1453.5,822.5C 1434.18,823.5 1414.84,823.833 1395.5,823.5C 1396.99,815.561 1397.49,807.561 1397,799.5C 1392.3,788.802 1384.8,780.635 1374.5,775C 1371.96,772.795 1369.79,770.295 1368,767.5C 1366.41,757.574 1366.08,747.574 1367,737.5C 1367.66,721.671 1375.16,710.504 1389.5,704C 1395.25,702.314 1400.92,700.814 1406.5,699.5 Z"/></g>
<g><path style="opacity:1" fill="#144068" d="M 303.5,763.5 C 311.833,763.5 320.167,763.5 328.5,763.5C 328.825,755.648 328.492,747.982 327.5,740.5C 326.579,732.502 322.246,727.335 314.5,725C 299.585,721.178 288.752,726.011 282,739.5C 281.503,741.81 281.337,744.143 281.5,746.5C 273.5,746.5 265.5,746.5 257.5,746.5C 262.083,718.924 278.416,704.924 306.5,704.5C 330.182,703.074 345.015,713.741 351,736.5C 351.333,767.5 351.667,798.5 352,829.5C 353.066,836.231 354.233,842.898 355.5,849.5C 347.472,849.831 339.472,849.498 331.5,848.5C 330.121,844.23 328.954,839.896 328,835.5C 317.573,849.205 303.74,854.705 286.5,852C 264.929,845.884 254.596,831.55 255.5,809C 256.654,787.172 267.654,772.838 288.5,766C 293.375,764.364 298.375,763.531 303.5,763.5 Z"/></g>
<g><path style="opacity:1" fill="#154168" d="M 559.5,704.5 C 595.832,701.011 617.998,717.011 626,752.5C 628.231,770.554 627.897,788.554 625,806.5C 616.066,841.75 593.566,856.583 557.5,851C 536.989,843.82 524.155,829.654 519,808.5C 516.576,792.252 515.91,775.919 517,759.5C 519.541,731.833 533.708,713.5 559.5,704.5 Z"/></g>
<g><path style="opacity:1" fill="#0b26ff" d="M 1142.5,741.5 C 1142.5,743.167 1142.5,744.833 1142.5,746.5C 1135.17,746.5 1127.83,746.5 1120.5,746.5C 1120.74,745.209 1120.4,744.209 1119.5,743.5C 1115.22,727.678 1104.89,721.511 1088.5,725C 1074.94,731.284 1071.44,741.117 1078,754.5C 1089.25,762.374 1101.41,768.541 1114.5,773C 1125.46,777.636 1134.29,784.803 1141,794.5C 1150.21,822.909 1140.71,841.742 1112.5,851C 1088.71,856.692 1069.21,850.192 1054,831.5C 1049.68,824.056 1047.52,816.056 1047.5,807.5C 1055.5,807.5 1063.5,807.5 1071.5,807.5C 1073.27,826.914 1083.93,835.081 1103.5,832C 1117.96,829.242 1123.46,820.742 1120,806.5C 1118.94,803.438 1117.11,800.938 1114.5,799C 1099.91,790.536 1084.91,782.87 1069.5,776C 1051.48,762.954 1046.98,746.121 1056,725.5C 1068.89,707.525 1086.39,700.691 1108.5,705C 1128.36,709.351 1139.69,721.518 1142.5,741.5 Z"/></g>
<g><path style="opacity:1" fill="#154168" d="M 657.5,706.5 C 665.167,706.5 672.833,706.5 680.5,706.5C 680.047,742.198 680.547,777.864 682,813.5C 684.753,828.464 693.587,834.297 708.5,831C 718.151,828.933 724.984,823.433 729,814.5C 729.5,778.502 729.667,742.502 729.5,706.5C 737.5,706.5 745.5,706.5 753.5,706.5C 753.5,754.167 753.5,801.833 753.5,849.5C 745.833,849.5 738.167,849.5 730.5,849.5C 730.665,845.818 730.499,842.152 730,838.5C 718.183,850.003 704.017,854.503 687.5,852C 673.775,848.609 664.942,840.109 661,826.5C 659.378,821.968 658.378,817.301 658,812.5C 657.5,777.168 657.333,741.835 657.5,706.5 Z"/></g>
<g><path style="opacity:1" fill="#0b26ff" d="M 994.5,849.5 C 994.824,845.445 994.491,841.445 993.5,837.5C 992.893,837.624 992.56,837.957 992.5,838.5C 983.335,848.509 971.835,853.176 958,852.5C 940.576,851.789 929.243,843.122 924,826.5C 922.378,821.968 921.378,817.301 921,812.5C 920.5,777.168 920.333,741.835 920.5,706.5C 928.167,706.5 935.833,706.5 943.5,706.5C 943.047,742.198 943.547,777.864 945,813.5C 947.753,828.464 956.587,834.297 971.5,831C 981.151,828.933 987.984,823.433 992,814.5C 992.5,778.502 992.667,742.502 992.5,706.5C 1000.5,706.5 1008.5,706.5 1016.5,706.5C 1016.5,754.167 1016.5,801.833 1016.5,849.5C 1009.17,849.5 1001.83,849.5 994.5,849.5 Z"/></g>
<g><path style="opacity:1" fill="#fdfdfe" d="M 563.5,724.5 C 581.326,721.826 593.493,728.826 600,745.5C 601.408,749.057 602.408,752.724 603,756.5C 603.667,770.5 603.667,784.5 603,798.5C 599.495,827.717 583.995,837.55 556.5,828C 548.798,821.959 543.965,814.125 542,804.5C 540.064,786.813 540.064,769.146 542,751.5C 545.389,739.299 552.556,730.299 563.5,724.5 Z"/></g>
<g><path style="opacity:1" fill="#fdfdfd" d="M 432.5,724.5 C 455.808,723.638 467.641,734.972 468,758.5C 468.667,770.5 468.667,782.5 468,794.5C 467.385,803.959 465.052,812.959 461,821.5C 452.826,830.667 442.66,833.834 430.5,831C 421.427,828.261 415.26,822.427 412,813.5C 411.333,789.833 411.333,766.167 412,742.5C 416.256,733.402 423.089,727.402 432.5,724.5 Z"/></g>
<g><path style="opacity:1" fill="#113f67" d="M 1560.5,762.5 C 1560.5,756.5 1560.5,750.5 1560.5,744.5C 1546.83,744.5 1533.17,744.5 1519.5,744.5C 1514.82,742.79 1513.32,739.457 1515,734.5C 1515.83,733.667 1516.67,732.833 1517.5,732C 1535.17,731.333 1552.83,731.333 1570.5,732C 1571.33,732.833 1572.17,733.667 1573,734.5C 1573.33,737.833 1573.67,741.167 1574,744.5C 1578.17,740.333 1582.33,736.167 1586.5,732C 1604.17,731.333 1621.83,731.333 1639.5,732C 1643.5,736 1643.5,740 1639.5,744C 1623.83,744.333 1608.17,744.667 1592.5,745C 1585.17,752.333 1577.83,759.667 1570.5,767C 1565.54,768.683 1562.21,767.183 1560.5,762.5 Z"/></g>
<g><path style="opacity:1" fill="#8da3b6" d="M 1519.5,744.5 C 1533.17,744.5 1546.83,744.5 1560.5,744.5C 1560.5,750.5 1560.5,756.5 1560.5,762.5C 1559.51,757.025 1559.18,751.358 1559.5,745.5C 1545.99,745.829 1532.66,745.496 1519.5,744.5 Z"/></g>
<g><path style="opacity:1" fill="#3e4eff" d="M 1142.5,741.5 C 1143.46,743.265 1143.79,745.265 1143.5,747.5C 1135.5,747.5 1127.5,747.5 1119.5,747.5C 1119.5,746.167 1119.5,744.833 1119.5,743.5C 1120.4,744.209 1120.74,745.209 1120.5,746.5C 1127.83,746.5 1135.17,746.5 1142.5,746.5C 1142.5,744.833 1142.5,743.167 1142.5,741.5 Z"/></g>
<g><path style="opacity:1" fill="#97abbc" d="M 327.5,740.5 C 328.492,747.982 328.825,755.648 328.5,763.5C 320.167,763.5 311.833,763.5 303.5,763.5C 311.316,762.508 319.316,762.174 327.5,762.5C 327.5,755.167 327.5,747.833 327.5,740.5 Z"/></g>
<g><path style="opacity:1" fill="#fbfcfd" d="M 304.5,780.5 C 312.5,780.5 320.5,780.5 328.5,780.5C 328.667,792.171 328.5,803.838 328,815.5C 318.669,828.584 306.169,833.417 290.5,830C 285.269,827.768 281.769,823.935 280,818.5C 276.685,805.877 279.851,795.377 289.5,787C 294.367,784.226 299.367,782.059 304.5,780.5 Z"/></g>
<g><path style="opacity:1" fill="#707eff" d="M 992.5,838.5 C 992.56,837.957 992.893,837.624 993.5,837.5C 994.491,841.445 994.824,845.445 994.5,849.5C 993.833,845.833 993.167,842.167 992.5,838.5 Z"/></g>
</svg>
