<?xml version="1.0" encoding="UTF-8"?>
<!DOCTYPE svg PUBLIC "-//W3C//DTD SVG 1.1//EN" "http://www.w3.org/Graphics/SVG/1.1/DTD/svg11.dtd">
<svg xmlns="http://www.w3.org/2000/svg" version="1.1" width="2000px" height="666px" style="shape-rendering:geometricPrecision; text-rendering:geometricPrecision; image-rendering:optimizeQuality; fill-rule:evenodd; clip-rule:evenodd" xmlns:xlink="http://www.w3.org/1999/xlink">
<g><path style="opacity:0.99" fill="#103e66" d="M 1626.5,-0.5 C 1651.17,-0.5 1675.83,-0.5 1700.5,-0.5C 1810.81,15.0369 1894.98,70.0369 1953,164.5C 2003.09,255.891 2011.09,350.891 1977,449.5C 1946.84,526.32 1896,585.153 1824.5,626C 1785.59,647.14 1744.25,660.307 1700.5,665.5C 1675.83,665.5 1651.17,665.5 1626.5,665.5C 1520.03,651.042 1437.53,599.042 1379,509.5C 1329.73,426.969 1316.73,338.969 1340,245.5C 1370.78,141.057 1435.95,66.89 1535.5,23C 1564.95,11.223 1595.28,3.38965 1626.5,-0.5 Z M 1650.5,23.5 C 1760.84,22.7569 1849.01,66.0902 1915,153.5C 1970.96,235.905 1985.62,325.238 1959,421.5C 1925.42,523.412 1857.92,591.912 1756.5,627C 1644.69,658.31 1544.69,636.644 1456.5,562C 1375.7,484.824 1343.2,390.657 1359,279.5C 1379.22,178.487 1434.72,103.987 1525.5,56C 1565.12,36.8449 1606.79,26.0116 1650.5,23.5 Z M 1739.5,234.5 C 1745.88,236.536 1746.88,240.036 1742.5,245C 1735.41,245.911 1733.24,243.078 1736,236.5C 1737.3,235.915 1738.47,235.249 1739.5,234.5 Z M 1800.5,234.5 C 1806.69,236.141 1808.02,239.641 1804.5,245C 1799.92,246.577 1796.92,245.077 1795.5,240.5C 1796.5,237.845 1798.16,235.845 1800.5,234.5 Z M 1558.5,265.5 C 1575.22,264.221 1591.56,266.055 1607.5,271C 1621.59,277.332 1629.75,288.166 1632,303.5C 1632.67,309.5 1633.33,315.5 1634,321.5C 1639,330.167 1644,338.833 1649,347.5C 1653.59,353.62 1654.42,360.12 1651.5,367C 1647.2,368.081 1642.87,369.081 1638.5,370C 1637.07,370.465 1635.9,371.299 1635,372.5C 1633.56,381.392 1633.06,390.392 1633.5,399.5C 1627.49,399.334 1621.49,399.501 1615.5,400C 1613.15,400.346 1611.32,401.513 1610,403.5C 1607.58,412.288 1605.41,421.122 1603.5,430C 1577.83,430.667 1552.17,430.667 1526.5,430C 1535.09,409.359 1531.09,391.692 1514.5,377C 1509.5,373.333 1504.5,369.667 1499.5,366C 1491.23,360.125 1487.56,352.125 1488.5,342C 1489.02,330.807 1489.85,319.64 1491,308.5C 1493.99,288.673 1505.16,276.173 1524.5,271C 1535.84,268.337 1547.18,266.504 1558.5,265.5 Z"/></g>
<g><path style="opacity:0.981" fill="#103e66" d="M 184.5,194.5 C 195.167,194.5 205.833,194.5 216.5,194.5C 216.333,227.502 216.5,260.502 217,293.5C 232.265,273.965 252.098,267.132 276.5,273C 298.41,279.581 312.243,294.081 318,316.5C 322.324,334.233 324.158,352.233 323.5,370.5C 324.014,387.685 322.514,404.685 319,421.5C 310.789,454.719 289.622,470.886 255.5,470C 238.394,468.7 225.227,460.867 216,446.5C 214.836,453.119 214.003,459.786 213.5,466.5C 203.833,466.5 194.167,466.5 184.5,466.5C 184.5,375.833 184.5,285.167 184.5,194.5 Z M 243.5,300.5 C 272.18,297.674 287.68,310.674 290,339.5C 292.501,363.942 291.835,388.275 288,412.5C 282.41,434.558 268.243,444.058 245.5,441C 232.127,437.969 222.627,430.136 217,417.5C 216.333,386.5 216.333,355.5 217,324.5C 222.593,312.732 231.426,304.732 243.5,300.5 Z"/></g>
<g><path style="opacity:0.986" fill="#103e66" d="M 1734.5,215.5 C 1747.19,213.929 1756.69,218.596 1763,229.5C 1767.78,248.872 1763.28,265.705 1749.5,280C 1740.27,286.984 1730.27,288.651 1719.5,285C 1715.05,279.019 1715.72,273.686 1721.5,269C 1725.15,268.226 1728.81,267.559 1732.5,267C 1733.67,266.581 1734.67,265.915 1735.5,265C 1719.48,260.475 1712.98,249.975 1716,233.5C 1718.89,223.999 1725.06,217.999 1734.5,215.5 Z M 1739.5,234.5 C 1738.47,235.249 1737.3,235.915 1736,236.5C 1733.24,243.078 1735.41,245.911 1742.5,245C 1746.88,240.036 1745.88,236.536 1739.5,234.5 Z"/></g>
<g><path style="opacity:0.983" fill="#113e66" d="M 1795.5,215.5 C 1818.44,215.272 1828.6,226.606 1826,249.5C 1823.04,274.351 1809.21,286.851 1784.5,287C 1775.97,281.326 1775.63,275.326 1783.5,269C 1787.98,268.256 1792.32,267.09 1796.5,265.5C 1777.12,257.736 1771.96,244.403 1781,225.5C 1784.98,220.774 1789.81,217.441 1795.5,215.5 Z M 1800.5,234.5 C 1798.16,235.845 1796.5,237.845 1795.5,240.5C 1796.92,245.077 1799.92,246.577 1804.5,245C 1808.02,239.641 1806.69,236.141 1800.5,234.5 Z"/></g>
<g><path style="opacity:0.993" fill="#113e67" d="M 727.5,228.5 C 738.167,228.5 748.833,228.5 759.5,228.5C 759.5,243.833 759.5,259.167 759.5,274.5C 769.167,274.5 778.833,274.5 788.5,274.5C 788.5,283.5 788.5,292.5 788.5,301.5C 778.833,301.5 769.167,301.5 759.5,301.5C 759.051,343.858 759.551,386.191 761,428.5C 762.496,437.17 767.663,441.503 776.5,441.5C 780.534,440.96 784.534,440.293 788.5,439.5C 788.666,448.506 788.5,457.506 788,466.5C 748.529,477.06 728.529,461.727 728,420.5C 727.5,380.835 727.333,341.168 727.5,301.5C 717.833,301.5 708.167,301.5 698.5,301.5C 698.5,292.5 698.5,283.5 698.5,274.5C 708.167,274.5 717.833,274.5 727.5,274.5C 727.5,259.167 727.5,243.833 727.5,228.5 Z"/></g>
<g><path style="opacity:0.986" fill="#103e66" d="M 1552.5,246.5 C 1567.54,246.124 1582.54,246.624 1597.5,248C 1633.78,255.675 1652.28,278.175 1653,315.5C 1659.79,326.083 1665.79,337.083 1671,348.5C 1673.78,358.937 1672.78,368.937 1668,378.5C 1664.06,382.89 1659.22,385.89 1653.5,387.5C 1652.67,395.813 1652.17,404.147 1652,412.5C 1651.23,414.939 1649.73,416.773 1647.5,418C 1640.5,418.333 1633.5,418.667 1626.5,419C 1624.55,427.102 1622.71,435.269 1621,443.5C 1619.83,446 1618,447.833 1615.5,449C 1580.83,449.667 1546.17,449.667 1511.5,449C 1507.27,447.554 1504.93,444.554 1504.5,440C 1506.64,429.449 1508.98,418.949 1511.5,408.5C 1510.1,401.878 1506.77,396.378 1501.5,392C 1493.08,386.254 1485.25,379.754 1478,372.5C 1470.87,362.873 1468.04,352.04 1469.5,340C 1469.38,323.931 1471.21,308.098 1475,292.5C 1480.67,274.161 1492.51,261.661 1510.5,255C 1524.31,250.536 1538.31,247.703 1552.5,246.5 Z M 1558.5,265.5 C 1547.18,266.504 1535.84,268.337 1524.5,271C 1505.16,276.173 1493.99,288.673 1491,308.5C 1489.85,319.64 1489.02,330.807 1488.5,342C 1487.56,352.125 1491.23,360.125 1499.5,366C 1504.5,369.667 1509.5,373.333 1514.5,377C 1531.09,391.692 1535.09,409.359 1526.5,430C 1552.17,430.667 1577.83,430.667 1603.5,430C 1605.41,421.122 1607.58,412.288 1610,403.5C 1611.32,401.513 1613.15,400.346 1615.5,400C 1621.49,399.501 1627.49,399.334 1633.5,399.5C 1633.06,390.392 1633.56,381.392 1635,372.5C 1635.9,371.299 1637.07,370.465 1638.5,370C 1642.87,369.081 1647.2,368.081 1651.5,367C 1654.42,360.12 1653.59,353.62 1649,347.5C 1644,338.833 1639,330.167 1634,321.5C 1633.33,315.5 1632.67,309.5 1632,303.5C 1629.75,288.166 1621.59,277.332 1607.5,271C 1591.56,266.055 1575.22,264.221 1558.5,265.5 Z"/></g>
<g><path style="opacity:0.992" fill="#113e66" d="M 66.5,271.5 C 85.7854,269.27 103.452,273.436 119.5,284C 129.122,293.077 134.622,304.244 136,317.5C 136.333,354.833 136.667,392.167 137,429.5C 137.764,442.015 139.597,454.348 142.5,466.5C 131.495,466.667 120.495,466.5 109.5,466C 107.523,459.986 106.023,453.819 105,447.5C 89.6307,468.06 69.4641,474.894 44.5,468C 19.2501,459.225 7.25005,441.392 8.5,414.5C 8.89691,381.925 24.8969,361.425 56.5,353C 72.376,350.271 88.376,349.104 104.5,349.5C 104.883,338.112 104.383,326.779 103,315.5C 97.4724,303.731 88.1391,298.397 75,299.5C 55.6765,299.659 45.1765,309.326 43.5,328.5C 32.8333,328.5 22.1667,328.5 11.5,328.5C 13.1057,303.052 25.7724,285.552 49.5,276C 55.2526,274.314 60.9192,272.814 66.5,271.5 Z M 76.5,374.5 C 85.8333,374.5 95.1667,374.5 104.5,374.5C 104.667,389.837 104.5,405.17 104,420.5C 89.9397,439.851 71.773,445.018 49.5,436C 44.4242,431.682 41.5908,426.182 41,419.5C 37.6581,400.682 44.4914,387.182 61.5,379C 66.5772,377.32 71.5772,375.82 76.5,374.5 Z"/></g>
<g><path style="opacity:0.991" fill="#103e66" d="M 419.5,271.5 C 462.737,269.03 489.904,288.697 501,330.5C 504.809,353.729 505.476,377.062 503,400.5C 494.964,450.577 465.797,473.411 415.5,469C 388.916,463.086 371.083,447.253 362,421.5C 358.516,411.115 356.516,400.448 356,389.5C 355.199,373.474 355.532,357.474 357,341.5C 360.473,311.341 375.639,289.508 402.5,276C 408.253,274.314 413.919,272.814 419.5,271.5 Z M 422.5,299.5 C 445.965,298.164 461.132,308.831 468,331.5C 472.705,353.642 473.705,375.975 471,398.5C 469.891,414.22 463.391,427.053 451.5,437C 420.363,448.848 400.196,438.681 391,406.5C 387.295,386.275 386.628,365.942 389,345.5C 390.852,329.964 397.352,316.798 408.5,306C 412.877,302.975 417.544,300.808 422.5,299.5 Z"/></g>
<g><path style="opacity:0.965" fill="#0022fe" d="M 1119.5,271.5 C 1143.59,268.47 1163.76,275.804 1180,293.5C 1187.95,304.507 1191.78,316.841 1191.5,330.5C 1180.83,330.5 1170.17,330.5 1159.5,330.5C 1158.11,311.114 1147.78,300.781 1128.5,299.5C 1108.51,300.315 1099.35,310.649 1101,330.5C 1102.24,335.741 1105.07,339.908 1109.5,343C 1128.08,352.193 1146.75,361.193 1165.5,370C 1188.52,382.887 1197.35,402.387 1192,428.5C 1185.21,451.837 1169.71,465.337 1145.5,469C 1123.82,472.932 1103.82,468.932 1085.5,457C 1069.9,444.625 1062.23,428.458 1062.5,408.5C 1073.17,408.333 1083.84,408.5 1094.5,409C 1097.76,434.245 1112.09,445.245 1137.5,442C 1155.6,438.916 1163.1,428.416 1160,410.5C 1158.66,406.49 1156.49,402.99 1153.5,400C 1150.17,397.667 1146.83,395.333 1143.5,393C 1124.41,384.421 1105.75,375.088 1087.5,365C 1068.54,348.995 1063.37,329.161 1072,305.5C 1081.83,285.677 1097.66,274.344 1119.5,271.5 Z"/></g>
<g><path style="opacity:0.968" fill="#0022fe" d="M 893.5,274.5 C 904.167,274.5 914.833,274.5 925.5,274.5C 925.035,321.863 925.535,369.196 927,416.5C 931.25,437.407 943.75,445.24 964.5,440C 976.84,436.327 985.34,428.493 990,416.5C 990.5,369.168 990.667,321.835 990.5,274.5C 1001.17,274.5 1011.83,274.5 1022.5,274.5C 1022.5,338.5 1022.5,402.5 1022.5,466.5C 1012.17,466.5 1001.83,466.5 991.5,466.5C 991.666,461.489 991.499,456.489 991,451.5C 975.109,467.604 955.942,473.438 933.5,469C 914.803,464.638 902.97,453.138 898,434.5C 896.024,427.621 894.691,420.621 894,413.5C 893.5,367.168 893.333,320.835 893.5,274.5 Z"/></g>
<g><path style="opacity:0.986" fill="#103e66" d="M 543.5,274.5 C 553.833,274.5 564.167,274.5 574.5,274.5C 574.075,320.517 574.575,366.517 576,412.5C 579.235,437.87 593.069,446.703 617.5,439C 627.604,435.229 634.771,428.396 639,418.5C 639.333,370.833 639.667,323.167 640,275.5C 650.752,274.513 661.585,274.18 672.5,274.5C 672.5,338.5 672.5,402.5 672.5,466.5C 662.167,466.5 651.833,466.5 641.5,466.5C 641.827,461.786 641.493,457.12 640.5,452.5C 624.42,467.756 605.42,473.256 583.5,469C 564.035,464.202 551.869,452.035 547,432.5C 545.615,427.239 544.615,421.906 544,416.5C 543.5,369.168 543.333,321.835 543.5,274.5 Z"/></g>
<g><path style="opacity:0.988" fill="#113e66" d="M 1690.5,307.5 C 1713.17,307.333 1735.84,307.5 1758.5,308C 1760.62,309.122 1762.46,310.622 1764,312.5C 1764.94,316.114 1765.61,319.781 1766,323.5C 1771.2,317.967 1776.7,312.8 1782.5,308C 1805.17,307.333 1827.83,307.333 1850.5,308C 1857.91,312.615 1858.91,318.282 1853.5,325C 1832.59,326.311 1811.59,326.978 1790.5,327C 1780.47,337.364 1770.14,347.364 1759.5,357C 1754.56,358.369 1750.4,357.203 1747,353.5C 1745.59,344.582 1745.09,335.582 1745.5,326.5C 1726.83,326.667 1708.16,326.5 1689.5,326C 1685.92,324.336 1684.25,321.503 1684.5,317.5C 1684.47,312.877 1686.47,309.544 1690.5,307.5 Z"/></g>
</svg>
