<?xml version="1.0" encoding="UTF-8"?>
<!DOCTYPE svg PUBLIC "-//W3C//DTD SVG 1.1//EN" "http://www.w3.org/Graphics/SVG/1.1/DTD/svg11.dtd">
<svg xmlns="http://www.w3.org/2000/svg" version="1.1" width="2000px" height="388px" style="shape-rendering:geometricPrecision; text-rendering:geometricPrecision; image-rendering:optimizeQuality; fill-rule:evenodd; clip-rule:evenodd" xmlns:xlink="http://www.w3.org/1999/xlink">
<g><path style="opacity:0.975" fill="#87c0cd" d="M 38.5,-0.5 C 48.1667,-0.5 57.8333,-0.5 67.5,-0.5C 86.5601,6.24196 98.2268,19.5753 102.5,39.5C 114.163,39.1098 124.496,42.6098 133.5,50C 146.755,62.6622 156.921,77.4955 164,94.5C 173.418,117.084 183.418,139.417 194,161.5C 196.843,166.519 200.176,171.186 204,175.5C 215.158,133.007 242.325,107.84 285.5,100C 331.419,96.7019 364.586,115.535 385,156.5C 388.429,165.217 390.763,174.217 392,183.5C 404.113,180.063 414.113,173.396 422,163.5C 429.088,152.991 436.421,142.658 444,132.5C 457.08,118.631 473.247,111.631 492.5,111.5C 497.117,92.3841 508.784,79.8841 527.5,74C 555.466,68.2343 575.633,78.0677 588,103.5C 595.444,125.824 590.61,144.991 573.5,161C 554.983,173.427 535.65,174.76 515.5,165C 503.545,157.277 495.879,146.444 492.5,132.5C 480.808,131.119 470.475,134.285 461.5,142C 451.212,155.41 441.045,168.91 431,182.5C 426.454,186.714 421.621,190.547 416.5,194C 423.262,198.758 429.429,204.258 435,210.5C 443.349,223.852 452.849,236.352 463.5,248C 471.745,254.394 481.078,257.394 491.5,257C 500.458,226.383 520.791,213.05 552.5,217C 577.423,224.094 590.757,240.594 592.5,266.5C 587.856,302.309 567.522,318.809 531.5,316C 510.167,310.667 496.833,297.333 491.5,276C 471.32,276.492 454.82,268.992 442,253.5C 433.651,240.148 424.151,227.648 413.5,216C 407.077,210.622 399.744,207.122 391.5,205.5C 384.788,248.409 360.455,275.576 318.5,287C 274.885,294.253 240.718,279.753 216,243.5C 210.023,233.214 206.023,222.214 204,210.5C 197.516,216.647 192.183,223.647 188,231.5C 177.416,254.252 167.416,277.252 158,300.5C 151.012,317.328 140.512,331.494 126.5,343C 118.778,347.508 110.445,349.675 101.5,349.5C 96.8759,368.126 85.5426,380.793 67.5,387.5C 58.1667,387.5 48.8333,387.5 39.5,387.5C 9.55768,375.285 -1.60899,353.285 6,321.5C 17.1389,296.55 36.3056,286.05 63.5,290C 84.0366,295.703 97.0366,308.87 102.5,329.5C 107.141,330.685 111.475,329.852 115.5,327C 122.758,321.744 128.591,315.244 133,307.5C 143.766,285.969 153.433,263.969 162,241.5C 167.776,228.103 174.943,215.603 183.5,204C 156.5,203.333 129.5,203.333 102.5,204C 93.1615,233.979 72.8282,246.979 41.5,243C 21.2636,237.688 8.76361,224.855 4,204.5C 0.477022,177.031 11.3104,157.865 36.5,147C 65.7363,139.704 86.903,149.537 100,176.5C 100.822,179.117 101.322,181.784 101.5,184.5C 129.835,184.667 158.169,184.5 186.5,184C 178.861,173.23 172.361,161.73 167,149.5C 158.413,127.661 148.746,106.327 138,85.5C 133.015,76.705 126.515,69.205 118.5,63C 113.819,60.2731 108.819,58.4398 103.5,57.5C 93.5612,89.935 71.8945,103.102 38.5,97C 15.6746,88.9914 3.67462,72.8247 2.5,48.5C 3.8117,24.2038 15.8117,7.87052 38.5,-0.5 Z M 538.5,90.5 C 564.49,92.8262 575.324,106.826 571,132.5C 561.658,151.06 547.158,156.894 527.5,150C 508.618,136.965 505.451,120.799 518,101.5C 523.855,95.825 530.689,92.1584 538.5,90.5 Z M 292.5,135.5 C 319.392,135.022 338.892,146.689 351,170.5C 361.844,201.634 353.677,226.468 326.5,245C 300.195,257.868 276.362,254.368 255,234.5C 238.232,214.622 234.899,192.622 245,168.5C 255.318,149.435 271.151,138.435 292.5,135.5 Z M 45.5,163.5 C 63.8579,161.053 76.3579,168.386 83,185.5C 85.8905,211.941 74.0572,225.108 47.5,225C 31.9583,220.778 23.2916,210.611 21.5,194.5C 22.8053,178.874 30.8053,168.541 45.5,163.5 Z M 49.5,307.5 C 64.7239,307.189 75.5573,313.855 82,327.5C 87.3361,347.328 80.5027,361.161 61.5,369C 38.5169,372.03 25.1836,362.03 21.5,339C 23.6779,321.996 33.0112,311.496 49.5,307.5 Z"/></g>
<g><path style="opacity:0.946" fill="#103e67" d="M 668.5,23.5 C 675.092,23.3781 679.592,26.3781 682,32.5C 682.988,35.4245 683.654,38.4245 684,41.5C 684.667,142.833 684.667,244.167 684,345.5C 683.716,350.687 682.049,355.353 679,359.5C 673.042,364.98 667.376,364.647 662,358.5C 660.073,355.052 658.739,351.385 658,347.5C 657.333,244.833 657.333,142.167 658,39.5C 658.793,32.2131 662.293,26.8798 668.5,23.5 Z"/></g>
<g><path style="opacity:0.998" fill="#113e66" d="M 1503.5,51.5 C 1512.17,51.5 1520.83,51.5 1529.5,51.5C 1529.5,125.5 1529.5,199.5 1529.5,273.5C 1520.83,273.5 1512.17,273.5 1503.5,273.5C 1503.5,199.5 1503.5,125.5 1503.5,51.5 Z"/></g>
<g><path style="opacity:0.99" fill="#103e66" d="M 765.5,62.5 C 776.52,62.1679 787.52,62.5012 798.5,63.5C 819.751,120.418 839.918,177.752 859,235.5C 879.777,177.948 901.111,120.615 923,63.5C 934.085,62.5126 945.252,62.1793 956.5,62.5C 962.741,132.813 968.741,203.146 974.5,273.5C 965.833,273.5 957.167,273.5 948.5,273.5C 943.446,215.524 938.613,157.524 934,99.5C 913.89,155.718 893.223,211.718 872,267.5C 863.333,268.833 854.667,268.833 846,267.5C 826.469,212.575 807.136,157.575 788,102.5C 784.072,159.499 780.238,216.499 776.5,273.5C 767.5,273.5 758.5,273.5 749.5,273.5C 754.734,203.119 760.068,132.786 765.5,62.5 Z"/></g>
<g><path style="opacity:0.99" fill="#103e66" d="M 1064.5,111.5 C 1106.4,109.83 1127.9,129.83 1129,171.5C 1129.5,205.498 1129.67,239.498 1129.5,273.5C 1120.83,273.5 1112.17,273.5 1103.5,273.5C 1103.67,268.156 1103.5,262.823 1103,257.5C 1091.86,270.172 1077.69,276.172 1060.5,275.5C 1022.06,272.298 1005.89,251.631 1012,213.5C 1018.06,198.442 1028.89,188.608 1044.5,184C 1049.1,182.683 1053.77,181.683 1058.5,181C 1073.47,179.772 1088.47,179.272 1103.5,179.5C 1104.53,167.317 1102.03,155.984 1096,145.5C 1087.83,137.499 1078,134.165 1066.5,135.5C 1050.36,134.994 1035.69,139.327 1022.5,148.5C 1021.17,139.833 1021.17,131.167 1022.5,122.5C 1035.73,115.526 1049.73,111.86 1064.5,111.5 Z M 1067.5,200.5 C 1079.5,200.5 1091.5,200.5 1103.5,200.5C 1103.67,208.84 1103.5,217.173 1103,225.5C 1098.42,244.148 1086.42,253.481 1067,253.5C 1045.01,252.869 1035.35,241.869 1038,220.5C 1040.83,212.333 1046.33,206.833 1054.5,204C 1058.92,202.648 1063.25,201.481 1067.5,200.5 Z"/></g>
<g><path style="opacity:0.994" fill="#103e66" d="M 1198.5,252.5 C 1198.22,251.711 1197.72,251.044 1197,250.5C 1196.17,278.67 1196.34,306.67 1197.5,334.5C 1189.02,335.493 1180.35,335.826 1171.5,335.5C 1171.5,261.833 1171.5,188.167 1171.5,114.5C 1180.17,114.5 1188.83,114.5 1197.5,114.5C 1197.33,121.508 1197.5,128.508 1198,135.5C 1213.72,115.43 1234.22,107.93 1259.5,113C 1282.03,117.857 1297.53,131.024 1306,152.5C 1315.6,178.693 1315.93,205.026 1307,231.5C 1289.57,270.632 1260.4,283.799 1219.5,271C 1210.77,266.77 1203.77,260.604 1198.5,252.5 Z M 1235.5,135.5 C 1258.04,133.872 1273.54,143.538 1282,164.5C 1287.17,181.64 1287.84,198.973 1284,216.5C 1274.29,247.271 1254.12,257.771 1223.5,248C 1208.6,239.077 1200.1,225.911 1198,208.5C 1197.33,198.833 1197.33,189.167 1198,179.5C 1200.7,156.313 1213.2,141.647 1235.5,135.5 Z"/></g>
<g><path style="opacity:0.983" fill="#103e66" d="M 1394.5,111.5 C 1409.69,110.905 1424.03,114.072 1437.5,121C 1451.13,131.759 1458.3,145.926 1459,163.5C 1459.5,200.165 1459.67,236.832 1459.5,273.5C 1451.17,273.5 1442.83,273.5 1434.5,273.5C 1434.67,267.824 1434.5,262.157 1434,256.5C 1428,265.093 1419.83,270.593 1409.5,273C 1395.3,276.475 1381.3,275.809 1367.5,271C 1345.1,259.033 1336.6,240.533 1342,215.5C 1345.25,204.485 1351.75,195.985 1361.5,190C 1370.25,185.194 1379.58,182.194 1389.5,181C 1404.14,179.78 1418.81,179.28 1433.5,179.5C 1435.63,144.476 1419.3,129.976 1384.5,136C 1373.03,137.82 1362.53,141.987 1353,148.5C 1352.18,139.588 1352.35,130.755 1353.5,122C 1366.53,115.494 1380.19,111.994 1394.5,111.5 Z M 1398.5,200.5 C 1410.17,200.5 1421.83,200.5 1433.5,200.5C 1433.67,209.506 1433.5,218.506 1433,227.5C 1427.78,245.04 1415.95,253.707 1397.5,253.5C 1385.43,254.215 1376.26,249.548 1370,239.5C 1364.47,224.415 1368.64,212.915 1382.5,205C 1387.82,202.941 1393.15,201.441 1398.5,200.5 Z"/></g>
<g><path style="opacity:0.991" fill="#103e66" d="M 1922.5,112.5 C 1971.78,111.944 1996.44,136.444 1996.5,186C 1996.25,192.176 1995.91,198.343 1995.5,204.5C 1959.5,204.5 1923.5,204.5 1887.5,204.5C 1889.76,227.851 1902.09,243.018 1924.5,250C 1945.97,254.776 1966.3,251.943 1985.5,241.5C 1986.66,249.479 1986.83,257.479 1986,265.5C 1955.91,279.26 1926.08,278.76 1896.5,264C 1871.64,247.521 1859.64,224.188 1860.5,194C 1859.49,168.038 1868.16,146.038 1886.5,128C 1897.1,119.416 1909.1,114.249 1922.5,112.5 Z M 1922.5,135.5 C 1956.09,133.759 1972.09,149.759 1970.5,183.5C 1942.83,183.5 1915.17,183.5 1887.5,183.5C 1888.5,159.427 1900.17,143.427 1922.5,135.5 Z"/></g>
<g><path style="opacity:0.99" fill="#103e66" d="M 1554.5,114.5 C 1564.19,114.168 1573.86,114.502 1583.5,115.5C 1599.63,155.715 1615.46,196.048 1631,236.5C 1645.67,195.986 1659.84,155.319 1673.5,114.5C 1682.86,114.168 1692.19,114.502 1701.5,115.5C 1682.57,166.461 1663.73,217.461 1645,268.5C 1638.81,286.386 1628.98,301.886 1615.5,315C 1599.87,326.293 1582.54,330.127 1563.5,326.5C 1563.5,318.833 1563.5,311.167 1563.5,303.5C 1591.17,307.006 1609.51,295.506 1618.5,269C 1596.75,217.665 1575.42,166.165 1554.5,114.5 Z"/></g>
<g><path style="opacity:0.973" fill="#103e66" d="M 1722.5,114.5 C 1758.5,114.5 1794.5,114.5 1830.5,114.5C 1830.92,121.615 1830.42,128.615 1829,135.5C 1802.62,173.754 1776.12,211.921 1749.5,250C 1777.83,250.5 1806.16,250.667 1834.5,250.5C 1834.5,258.167 1834.5,265.833 1834.5,273.5C 1796.17,273.5 1757.83,273.5 1719.5,273.5C 1719.33,266.492 1719.5,259.492 1720,252.5C 1746.17,214.333 1772.33,176.167 1798.5,138C 1773.17,137.5 1747.84,137.333 1722.5,137.5C 1722.5,129.833 1722.5,122.167 1722.5,114.5 Z"/></g>
<g><path style="opacity:0.055" fill="#11386b" d="M 1198.5,252.5 C 1197.5,279.662 1197.17,306.995 1197.5,334.5C 1196.34,306.67 1196.17,278.67 1197,250.5C 1197.72,251.044 1198.22,251.711 1198.5,252.5 Z"/></g>
</svg>
