<?xml version="1.0" encoding="UTF-8"?>
<!DOCTYPE svg PUBLIC "-//W3C//DTD SVG 1.1//EN" "http://www.w3.org/Graphics/SVG/1.1/DTD/svg11.dtd">
<svg xmlns="http://www.w3.org/2000/svg" version="1.1" width="2000px" height="656px" style="shape-rendering:geometricPrecision; text-rendering:geometricPrecision; image-rendering:optimizeQuality; fill-rule:evenodd; clip-rule:evenodd" xmlns:xlink="http://www.w3.org/1999/xlink">
<g><path style="opacity:0.989" fill="#113e66" d="M 1646.5,0.5 C 1774.99,-4.17501 1875.15,46.1583 1947,151.5C 2002.62,244.01 2012.62,341.343 1977,443.5C 1933.28,550.877 1855.11,618.711 1742.5,647C 1622.6,670.024 1519.43,638.857 1433,553.5C 1356.83,468.943 1329.33,370.443 1350.5,258C 1377.05,148.459 1441.72,70.7927 1544.5,25C 1577.42,11.7689 1611.42,3.6022 1646.5,0.5 Z M 1652.5,34.5 C 1756.53,31.6084 1840.69,70.6084 1905,151.5C 1965.81,237.505 1979.14,330.505 1945,430.5C 1905.31,527.615 1834.47,588.782 1732.5,614C 1626.01,633.497 1534.51,605.331 1458,529.5C 1385.8,448.7 1362.47,355.366 1388,249.5C 1420.17,145.333 1488.33,77.1667 1592.5,45C 1612.36,39.8577 1632.36,36.3577 1652.5,34.5 Z M 1668.5,209.5 C 1699.42,238.915 1729.92,268.915 1760,299.5C 1760.5,350.832 1760.67,402.166 1760.5,453.5C 1700.17,453.5 1639.83,453.5 1579.5,453.5C 1579.33,401.832 1579.5,350.166 1580,298.5C 1609.7,268.965 1639.2,239.299 1668.5,209.5 Z"/></g>
<g><path style="opacity:0.991" fill="#113e66" d="M 1.5,142.5 C 15.1667,142.5 28.8333,142.5 42.5,142.5C 42.3333,192.168 42.5,241.834 43,291.5C 80.0599,259.92 120.893,254.087 165.5,274C 184.018,286.496 194.851,303.996 198,326.5C 198.749,331.489 199.415,336.489 200,341.5C 200.5,396.166 200.667,450.832 200.5,505.5C 186.833,505.5 173.167,505.5 159.5,505.5C 159.667,453.166 159.5,400.832 159,348.5C 158.474,334.244 153.641,321.744 144.5,311C 133.932,303.94 122.265,300.774 109.5,301.5C 91.3718,301.931 74.7052,307.098 59.5,317C 54,321.167 48.5,325.333 43,329.5C 42.5,388.166 42.3333,446.832 42.5,505.5C 28.8333,505.5 15.1667,505.5 1.5,505.5C 1.5,384.5 1.5,263.5 1.5,142.5 Z"/></g>
<g><path style="opacity:0.991" fill="#113e66" d="M 1662.5,157.5 C 1670.19,156.736 1677.52,157.902 1684.5,161C 1737.36,213.527 1789.86,266.361 1842,319.5C 1847.85,338.132 1841.19,349.132 1822,352.5C 1815.3,351.937 1809.63,349.271 1805,344.5C 1804.67,389.5 1804.33,434.5 1804,479.5C 1802.45,487.452 1797.95,492.952 1790.5,496C 1711.22,497.658 1631.89,497.991 1552.5,497C 1544.53,495.034 1539.03,490.201 1536,482.5C 1535.67,436.167 1535.33,389.833 1535,343.5C 1524.05,352.824 1513.05,352.824 1502,343.5C 1494.67,333.5 1494.67,323.5 1502,313.5C 1552.5,263 1603,212.5 1653.5,162C 1656.59,160.454 1659.59,158.954 1662.5,157.5 Z M 1668.5,209.5 C 1639.2,239.299 1609.7,268.965 1580,298.5C 1579.5,350.166 1579.33,401.832 1579.5,453.5C 1639.83,453.5 1700.17,453.5 1760.5,453.5C 1760.67,402.166 1760.5,350.832 1760,299.5C 1729.92,268.915 1699.42,238.915 1668.5,209.5 Z"/></g>
<g><path style="opacity:0.991" fill="#113e66" d="M 371.5,260.5 C 444.174,261.005 485.007,297.339 494,369.5C 498.204,406.498 490.204,440.498 470,471.5C 450.517,495.328 425.351,508.828 394.5,512C 370.724,514.653 347.724,511.653 325.5,503C 294.682,487.871 274.848,463.704 266,430.5C 256.788,394.038 259.121,358.372 273,323.5C 293.429,283.259 326.262,262.259 371.5,260.5 Z M 369.5,298.5 C 409.071,296.258 434.905,313.925 447,351.5C 453.241,376.262 452.908,400.928 446,425.5C 428.874,467.647 398.041,483.147 353.5,472C 327.108,461.256 311.274,441.756 306,413.5C 299.863,384.796 303.53,357.462 317,331.5C 329.155,312.005 346.655,301.005 369.5,298.5 Z"/></g>
<g><path style="opacity:0.985" fill="#113e66" d="M 1063.5,260.5 C 1128.95,261.153 1164.12,294.153 1169,359.5C 1169.5,369.828 1169.67,380.161 1169.5,390.5C 1114.17,390.5 1058.83,390.5 1003.5,390.5C 1003.77,409.258 1008.27,426.924 1017,443.5C 1028.8,462.495 1045.97,472.995 1068.5,475C 1087.6,476.939 1106.26,474.939 1124.5,469C 1133.83,465.391 1143.16,461.891 1152.5,458.5C 1156.1,469.618 1160.1,480.618 1164.5,491.5C 1148.79,500.905 1131.79,507.072 1113.5,510C 1090.43,513.626 1067.43,513.293 1044.5,509C 1000.01,496.178 973.181,467.011 964,421.5C 957.676,388.392 960.342,356.059 972,324.5C 990.023,285.245 1020.52,263.912 1063.5,260.5 Z M 1063.5,297.5 C 1103.18,296.519 1123.85,315.852 1125.5,355.5C 1085.83,355.5 1046.17,355.5 1006.5,355.5C 1009.32,336.36 1017.98,320.527 1032.5,308C 1042.16,302.17 1052.49,298.67 1063.5,297.5 Z"/></g>
<g><path style="opacity:0.988" fill="#113e66" d="M 658.5,262.5 C 678.284,261.196 697.284,264.363 715.5,272C 727.826,279.325 736.992,289.492 743,302.5C 760.412,282.875 781.912,270.042 807.5,264C 831.44,260.029 854.106,263.695 875.5,275C 886.582,282.756 894.749,292.923 900,305.5C 903.434,314.902 905.767,324.568 907,334.5C 908.458,391.479 908.958,448.479 908.5,505.5C 894.833,505.5 881.167,505.5 867.5,505.5C 867.667,454.499 867.5,403.499 867,352.5C 866.53,313.039 846.697,296.205 807.5,302C 785.882,306.646 767.382,316.813 752,332.5C 753.413,390.118 753.913,447.785 753.5,505.5C 739.5,505.5 725.5,505.5 711.5,505.5C 711.667,452.166 711.5,398.832 711,345.5C 710.406,332.371 705.906,320.871 697.5,311C 687.119,304.028 675.619,300.862 663,301.5C 643.975,301.953 626.808,307.786 611.5,319C 607.167,322.5 602.833,326 598.5,329.5C 597.5,388.163 597.167,446.83 597.5,505.5C 583.833,505.5 570.167,505.5 556.5,505.5C 556.5,426.167 556.5,346.833 556.5,267.5C 570.167,267.5 583.833,267.5 597.5,267.5C 597.334,275.507 597.5,283.507 598,291.5C 615.43,276.034 635.596,266.368 658.5,262.5 Z"/></g>
</svg>
