<?xml version="1.0" encoding="UTF-8"?>
<!DOCTYPE svg PUBLIC "-//W3C//DTD SVG 1.1//EN" "http://www.w3.org/Graphics/SVG/1.1/DTD/svg11.dtd">
<svg xmlns="http://www.w3.org/2000/svg" version="1.1" width="2000px" height="1500px" style="shape-rendering:geometricPrecision; text-rendering:geometricPrecision; image-rendering:optimizeQuality; fill-rule:evenodd; clip-rule:evenodd" xmlns:xlink="http://www.w3.org/1999/xlink">
<g><path style="opacity:1" fill="#fefefe" d="M -0.5,-0.5 C 666.167,-0.5 1332.83,-0.5 1999.5,-0.5C 1999.5,499.5 1999.5,999.5 1999.5,1499.5C 1332.83,1499.5 666.167,1499.5 -0.5,1499.5C -0.5,999.5 -0.5,499.5 -0.5,-0.5 Z"/></g>
<g><path style="opacity:1" fill="#144068" d="M 1481.5,504.5 C 1575.02,500.516 1649.52,535.849 1705,610.5C 1753.06,685.101 1760.73,763.768 1728,846.5C 1686.92,933.538 1618.42,982.704 1522.5,994C 1443.42,998.525 1376.59,972.359 1322,915.5C 1268.42,853.875 1248.42,782.541 1262,701.5C 1284.3,607.195 1341.47,544.695 1433.5,514C 1449.35,509.464 1465.35,506.297 1481.5,504.5 Z"/></g>
<g><path style="opacity:1" fill="#fefefe" d="M 1482.5,529.5 C 1576.56,525.544 1647.73,563.544 1696,643.5C 1723.91,695.648 1730.25,750.315 1715,807.5C 1693.38,880.12 1647.21,929.953 1576.5,957C 1482.34,985.6 1401.84,964.1 1335,892.5C 1286.37,832.043 1271.71,764.043 1291,688.5C 1315.06,612.77 1364.9,562.604 1440.5,538C 1454.45,534.177 1468.45,531.344 1482.5,529.5 Z"/></g>
<g><path style="opacity:1" fill="#134067" d="M 281.5,723.5 C 306,701.468 334,695.634 365.5,706C 382.465,712.973 392.965,725.473 397,743.5C 398.327,750.112 399.327,756.778 400,763.5C 400.5,803.165 400.667,842.832 400.5,882.5C 390.5,882.5 380.5,882.5 370.5,882.5C 370.832,843.996 370.499,805.663 369.5,767.5C 370.367,753.566 365.367,742.399 354.5,734C 333.339,726.199 313.339,728.533 294.5,741C 290.244,744.045 286.077,747.212 282,750.5C 281.5,794.499 281.333,838.499 281.5,882.5C 271.5,882.5 261.5,882.5 251.5,882.5C 251.5,792.167 251.5,701.833 251.5,611.5C 261.167,611.5 270.833,611.5 280.5,611.5C 280.168,649.004 280.502,686.337 281.5,723.5 Z"/></g>
<g><path style="opacity:1" fill="#68849e" d="M 281.5,723.5 C 280.502,686.337 280.168,649.004 280.5,611.5C 270.833,611.5 261.167,611.5 251.5,611.5C 251.5,701.833 251.5,792.167 251.5,882.5C 250.501,792.002 250.167,701.335 250.5,610.5C 260.833,610.5 271.167,610.5 281.5,610.5C 281.5,648.167 281.5,685.833 281.5,723.5 Z"/></g>
<g><path style="opacity:1" fill="#123f67" d="M 1604.5,762.5 C 1604.22,761.711 1603.72,761.044 1603,760.5C 1602.5,794.498 1602.33,828.498 1602.5,862.5C 1601.25,868.922 1597.58,873.422 1591.5,876C 1531.83,876.667 1472.17,876.667 1412.5,876C 1407.27,873.768 1403.77,869.935 1402,864.5C 1401.67,830.167 1401.33,795.833 1401,761.5C 1388.96,769.905 1379.63,767.571 1373,754.5C 1371.89,749.352 1372.89,744.685 1376,740.5C 1414.5,702 1453,663.5 1491.5,625C 1499.87,621.253 1507.87,621.92 1515.5,627C 1553,664.5 1590.5,702 1628,739.5C 1635.58,751.014 1633.41,760.181 1621.5,767C 1614.92,768.62 1609.26,767.12 1604.5,762.5 Z"/></g>
<g><path style="opacity:1" fill="#fefefe" d="M 1570.5,843.5 C 1525.17,843.5 1479.83,843.5 1434.5,843.5C 1434.5,804.833 1434.5,766.167 1434.5,727.5C 1456.97,705.535 1479.3,683.368 1501.5,661C 1502.17,660.333 1502.83,660.333 1503.5,661C 1525.67,683.167 1547.83,705.333 1570,727.5C 1570.5,766.165 1570.67,804.832 1570.5,843.5 Z"/></g>
<g><path style="opacity:1" fill="#134068" d="M 523.5,699.5 C 579.45,697.625 611.617,724.292 620,779.5C 623.063,808.206 616.73,834.539 601,858.5C 580.181,881.112 554.348,890.945 523.5,888C 482.218,883.056 457.051,860.223 448,819.5C 441.518,789.731 445.851,761.731 461,735.5C 476.357,713.974 497.19,701.974 523.5,699.5 Z"/></g>
<g><path style="opacity:1" fill="#154168" d="M 1043.5,699.5 C 1091.15,698.004 1118.65,720.67 1126,767.5C 1126.5,777.161 1126.67,786.828 1126.5,796.5C 1085.17,796.5 1043.83,796.5 1002.5,796.5C 1006.08,849.825 1034.08,870.325 1086.5,858C 1095.35,855.329 1104.01,852.162 1112.5,848.5C 1116.68,855.859 1120.02,863.692 1122.5,872C 1115.77,876.474 1108.44,879.807 1100.5,882C 1077.75,889.162 1054.75,890.162 1031.5,885C 998.366,873.947 978.866,851.114 973,816.5C 968.236,791.328 970.903,766.995 981,743.5C 994.367,718.079 1015.2,703.412 1043.5,699.5 Z"/></g>
<g><path style="opacity:1" fill="#124067" d="M 930.5,763.5 C 930.5,803.167 930.5,842.833 930.5,882.5C 920.5,882.5 910.5,882.5 900.5,882.5C 900.967,839.799 900.467,797.133 899,754.5C 894.341,736.235 882.507,727.902 863.5,729.5C 849.842,729.775 837.508,733.942 826.5,742C 822.333,745.5 818.167,749 814,752.5C 814.45,795.814 814.617,839.147 814.5,882.5C 804.5,882.5 794.5,882.5 784.5,882.5C 784.667,842.832 784.5,803.165 784,763.5C 782.822,739.988 770.489,728.654 747,729.5C 735.748,729.472 725.248,732.305 715.5,738C 709.478,741.678 703.811,745.845 698.5,750.5C 697.5,794.495 697.167,838.495 697.5,882.5C 687.5,882.5 677.5,882.5 667.5,882.5C 667.5,823.167 667.5,763.833 667.5,704.5C 677.5,704.5 687.5,704.5 697.5,704.5C 697.17,710.868 697.504,717.202 698.5,723.5C 720.477,702.791 746.144,696.291 775.5,704C 789.966,708.303 800.632,717.137 807.5,730.5C 818.978,718.923 832.312,710.09 847.5,704C 868.971,698.624 889.304,701.291 908.5,712C 923.496,725.8 930.829,742.967 930.5,763.5 Z"/></g>
<g><path style="opacity:1" fill="#fdfefe" d="M 522.5,727.5 C 563.123,725.574 585.289,744.907 589,785.5C 591.716,809.867 584.883,831.034 568.5,849C 554.207,859.501 538.207,863.168 520.5,860C 498.114,853.277 484.281,838.443 479,815.5C 476.18,797.551 477.18,779.884 482,762.5C 489.576,743.743 503.076,732.076 522.5,727.5 Z"/></g>
<g><path style="opacity:1" fill="#fcfdfd" d="M 1043.5,726.5 C 1075.46,724.142 1092.46,738.809 1094.5,770.5C 1064.5,770.5 1034.5,770.5 1004.5,770.5C 1007.39,746.632 1020.39,731.965 1043.5,726.5 Z"/></g>
<g><path style="opacity:1" fill="#bdc9d4" d="M 1604.5,762.5 C 1603.83,795.833 1603.17,829.167 1602.5,862.5C 1602.33,828.498 1602.5,794.498 1603,760.5C 1603.72,761.044 1604.22,761.711 1604.5,762.5 Z"/></g>
<g><path style="opacity:1" fill="#b1bfcc" d="M 1434.5,727.5 C 1434.5,766.167 1434.5,804.833 1434.5,843.5C 1479.83,843.5 1525.17,843.5 1570.5,843.5C 1525,844.499 1479.34,844.832 1433.5,844.5C 1433.17,805.33 1433.5,766.33 1434.5,727.5 Z"/></g>
<g><path style="opacity:1" fill="#acbcca" d="M 369.5,767.5 C 370.499,805.663 370.832,843.996 370.5,882.5C 380.5,882.5 390.5,882.5 400.5,882.5C 390.347,883.494 380.014,883.828 369.5,883.5C 369.5,844.833 369.5,806.167 369.5,767.5 Z"/></g>
<g><path style="opacity:1" fill="#afbecc" d="M 930.5,763.5 C 931.499,803.33 931.832,843.33 931.5,883.5C 920.986,883.828 910.653,883.494 900.5,882.5C 910.5,882.5 920.5,882.5 930.5,882.5C 930.5,842.833 930.5,803.167 930.5,763.5 Z"/></g>
</svg>
