<?xml version="1.0" encoding="UTF-8"?>
<!DOCTYPE svg PUBLIC "-//W3C//DTD SVG 1.1//EN" "http://www.w3.org/Graphics/SVG/1.1/DTD/svg11.dtd">
<svg xmlns="http://www.w3.org/2000/svg" version="1.1" width="2000px" height="1500px" style="shape-rendering:geometricPrecision; text-rendering:geometricPrecision; image-rendering:optimizeQuality; fill-rule:evenodd; clip-rule:evenodd" xmlns:xlink="http://www.w3.org/1999/xlink">
<g><path style="opacity:1" fill="#fefefe" d="M -0.5,-0.5 C 666.167,-0.5 1332.83,-0.5 1999.5,-0.5C 1999.5,499.5 1999.5,999.5 1999.5,1499.5C 1332.83,1499.5 666.167,1499.5 -0.5,1499.5C -0.5,999.5 -0.5,499.5 -0.5,-0.5 Z"/></g>
<g><path style="opacity:1" fill="#123f67" d="M 491.5,481.5 C 598.5,475.425 682.667,515.758 744,602.5C 792.76,681.951 800.427,765.285 767,852.5C 738.226,919.607 690.393,967.774 623.5,997C 522.055,1035.54 429.055,1021.2 344.5,954C 274.845,891.082 244.012,812.582 252,718.5C 266.889,619.163 319.389,547.663 409.5,504C 436.001,493.008 463.335,485.508 491.5,481.5 Z"/></g>
<g><path style="opacity:1" fill="#144168" d="M 1482.5,554.5 C 1502.13,554.297 1511.3,563.963 1510,583.5C 1503.97,599.625 1492.81,604.792 1476.5,599C 1464.5,590.822 1461.34,579.989 1467,566.5C 1471.02,560.919 1476.19,556.919 1482.5,554.5 Z"/></g>
<g><path style="opacity:1" fill="#fdfdfd" d="M 496.5,557.5 C 562.96,552.366 618.793,574.032 664,622.5C 713.712,683.783 724.379,751.449 696,825.5C 664.56,891.923 612.393,930.423 539.5,941C 458.825,946.08 396.658,914.913 353,847.5C 321.27,789.274 318.27,729.607 344,668.5C 375.884,605.447 426.717,568.447 496.5,557.5 Z"/></g>
<g><path style="opacity:1" fill="#1f496f" d="M 913.5,563.5 C 902.5,563.5 891.5,563.5 880.5,563.5C 880.5,656.167 880.5,748.833 880.5,841.5C 891.5,841.5 902.5,841.5 913.5,841.5C 902.346,842.495 891.012,842.828 879.5,842.5C 879.5,749.167 879.5,655.833 879.5,562.5C 891.012,562.172 902.346,562.505 913.5,563.5 Z"/></g>
<g><path style="opacity:1" fill="#113f67" d="M 913.5,563.5 C 913.5,656.167 913.5,748.833 913.5,841.5C 902.5,841.5 891.5,841.5 880.5,841.5C 880.5,748.833 880.5,656.167 880.5,563.5C 891.5,563.5 902.5,563.5 913.5,563.5 Z"/></g>
<g><path style="opacity:1" fill="#123f67" d="M 498.5,589.5 C 561.378,584.535 611.878,606.869 650,656.5C 684.218,708.694 688.551,763.36 663,820.5C 627.761,884.048 573.594,913.548 500.5,909C 432.841,898.007 387.674,860.173 365,795.5C 348.69,731.224 364.19,676.057 411.5,630C 436.767,608.365 465.767,594.865 498.5,589.5 Z"/></g>
<g><path style="opacity:1" fill="#113f67" d="M 1597.5,725.5 C 1596.5,763.996 1596.17,802.663 1596.5,841.5C 1585.5,841.5 1574.5,841.5 1563.5,841.5C 1563.5,772.833 1563.5,704.167 1563.5,635.5C 1574.5,635.5 1585.5,635.5 1596.5,635.5C 1596.17,645.19 1596.5,654.856 1597.5,664.5C 1598.11,664.376 1598.44,664.043 1598.5,663.5C 1611.14,645.663 1628.47,635.163 1650.5,632C 1673.89,629.061 1695.56,633.728 1715.5,646C 1735.66,661.473 1746.49,681.973 1748,707.5C 1748.5,752.499 1748.67,797.499 1748.5,842.5C 1737.17,842.5 1725.83,842.5 1714.5,842.5C 1714.67,798.832 1714.5,755.165 1714,711.5C 1710.36,683.2 1694.53,666.7 1666.5,662C 1621.69,659.301 1598.69,680.468 1597.5,725.5 Z"/></g>
<g><path style="opacity:1" fill="#134068" d="M 1051.5,631.5 C 1080.48,629.492 1106.81,636.658 1130.5,653C 1151.69,670.541 1164.19,693.041 1168,720.5C 1173.42,760.573 1161.59,794.407 1132.5,822C 1095.68,848.433 1056.35,852.766 1014.5,835C 983.671,817.884 965.837,791.718 961,756.5C 955.02,717.105 966.187,683.605 994.5,656C 1011.44,642.858 1030.44,634.691 1051.5,631.5 Z"/></g>
<g><path style="opacity:1" fill="#134067" d="M 1375.5,670.5 C 1375.78,671.289 1376.28,671.956 1377,672.5C 1377.5,660.171 1377.67,647.838 1377.5,635.5C 1388.83,635.5 1400.17,635.5 1411.5,635.5C 1411.67,710.834 1411.5,786.167 1411,861.5C 1402.38,910.12 1373.54,937.62 1324.5,944C 1290.54,947.674 1260.54,938.674 1234.5,917C 1222.8,904.767 1215.47,890.267 1212.5,873.5C 1223.82,872.334 1235.15,872.168 1246.5,873C 1255.17,894.998 1271.17,908.332 1294.5,913C 1316.31,917.448 1336.31,913.448 1354.5,901C 1368.69,888.789 1376.02,873.289 1376.5,854.5C 1377.66,837.672 1377.83,820.672 1377,803.5C 1376.28,804.044 1375.78,804.711 1375.5,805.5C 1357.59,832.458 1332.26,845.791 1299.5,845.5C 1264.37,844.69 1237.21,829.69 1218,800.5C 1196.36,759.621 1196.03,718.621 1217,677.5C 1236.01,648.07 1263.18,632.737 1298.5,631.5C 1331.23,631.047 1356.9,644.047 1375.5,670.5 Z"/></g>
<g><path style="opacity:1" fill="#8fa4b7" d="M 1377.5,635.5 C 1377.67,647.838 1377.5,660.171 1377,672.5C 1376.28,671.956 1375.78,671.289 1375.5,670.5C 1376.17,658.833 1376.83,647.167 1377.5,635.5 Z"/></g>
<g><path style="opacity:1" fill="#819aaf" d="M 1504.5,635.5 C 1504.17,635.5 1503.83,635.5 1503.5,635.5C 1492.5,635.5 1481.5,635.5 1470.5,635.5C 1470.5,704.167 1470.5,772.833 1470.5,841.5C 1470.5,841.833 1470.5,842.167 1470.5,842.5C 1469.5,773.335 1469.17,704.002 1469.5,634.5C 1481.35,634.172 1493.01,634.505 1504.5,635.5 Z"/></g>
<g><path style="opacity:1" fill="#113f67" d="M 1503.5,635.5 C 1503.5,704.167 1503.5,772.833 1503.5,841.5C 1492.5,841.5 1481.5,841.5 1470.5,841.5C 1470.5,772.833 1470.5,704.167 1470.5,635.5C 1481.5,635.5 1492.5,635.5 1503.5,635.5 Z"/></g>
<g><path style="opacity:1" fill="#355c7d" d="M 1503.5,635.5 C 1503.83,635.5 1504.17,635.5 1504.5,635.5C 1504.5,704.5 1504.5,773.5 1504.5,842.5C 1493.17,842.5 1481.83,842.5 1470.5,842.5C 1470.5,842.167 1470.5,841.833 1470.5,841.5C 1481.5,841.5 1492.5,841.5 1503.5,841.5C 1503.5,772.833 1503.5,704.167 1503.5,635.5 Z"/></g>
<g><path style="opacity:1" fill="#8098ad" d="M 1597.5,635.5 C 1597.17,635.5 1596.83,635.5 1596.5,635.5C 1585.5,635.5 1574.5,635.5 1563.5,635.5C 1563.5,704.167 1563.5,772.833 1563.5,841.5C 1563.5,841.833 1563.5,842.167 1563.5,842.5C 1562.5,773.335 1562.17,704.002 1562.5,634.5C 1574.35,634.172 1586.01,634.505 1597.5,635.5 Z"/></g>
<g><path style="opacity:1" fill="#355c7e" d="M 1596.5,635.5 C 1596.83,635.5 1597.17,635.5 1597.5,635.5C 1597.17,645.015 1597.51,654.348 1598.5,663.5C 1598.44,664.043 1598.11,664.376 1597.5,664.5C 1596.5,654.856 1596.17,645.19 1596.5,635.5 Z"/></g>
<g><path style="opacity:1" fill="#fefefe" d="M 507.5,640.5 C 559.982,638.808 597.482,661.475 620,708.5C 636.752,758.233 625.585,800.4 586.5,835C 546.304,863.363 504.637,865.696 461.5,842C 420.169,813.046 404.002,773.546 413,723.5C 427.636,676.459 459.136,648.793 507.5,640.5 Z"/></g>
<g><path style="opacity:1" fill="#fefefe" d="M 1053.5,661.5 C 1097,659.149 1123.5,679.149 1133,721.5C 1136.04,742.943 1132.7,763.276 1123,782.5C 1108.53,804.74 1087.86,815.74 1061,815.5C 1024.19,812.691 1002.52,793.024 996,756.5C 991.558,732.58 995.558,710.246 1008,689.5C 1019.37,673.902 1034.54,664.568 1053.5,661.5 Z"/></g>
<g><path style="opacity:1" fill="#fdfefe" d="M 1296.5,661.5 C 1339.58,659.767 1366.08,679.767 1376,721.5C 1380.22,748.251 1374.22,772.251 1358,793.5C 1334.99,815.433 1308.49,820.933 1278.5,810C 1254.12,797.25 1240.28,777.084 1237,749.5C 1232.74,716.541 1243.91,690.375 1270.5,671C 1278.76,666.352 1287.43,663.185 1296.5,661.5 Z"/></g>
<g><path style="opacity:1" fill="#375d7f" d="M 1597.5,725.5 C 1597.5,764.5 1597.5,803.5 1597.5,842.5C 1586.17,842.5 1574.83,842.5 1563.5,842.5C 1563.5,842.167 1563.5,841.833 1563.5,841.5C 1574.5,841.5 1585.5,841.5 1596.5,841.5C 1596.17,802.663 1596.5,763.996 1597.5,725.5 Z"/></g>
<g><path style="opacity:1" fill="#899fb3" d="M 1376.5,854.5 C 1376.83,837.991 1376.5,821.658 1375.5,805.5C 1375.78,804.711 1376.28,804.044 1377,803.5C 1377.83,820.672 1377.66,837.672 1376.5,854.5 Z"/></g>
</svg>
