<?xml version="1.0" encoding="UTF-8"?>
<!DOCTYPE svg PUBLIC "-//W3C//DTD SVG 1.1//EN" "http://www.w3.org/Graphics/SVG/1.1/DTD/svg11.dtd">
<svg xmlns="http://www.w3.org/2000/svg" version="1.1" width="2000px" height="717px" style="shape-rendering:geometricPrecision; text-rendering:geometricPrecision; image-rendering:optimizeQuality; fill-rule:evenodd; clip-rule:evenodd" xmlns:xlink="http://www.w3.org/1999/xlink">
<g><path style="opacity:0.996" fill="#113e66" d="M 340.5,-0.5 C 352.833,-0.5 365.167,-0.5 377.5,-0.5C 508.21,10.4911 606.71,72.1578 673,184.5C 724.833,283.992 731.166,386.325 692,491.5C 654.342,580.346 591.842,645.179 504.5,686C 463.829,703.586 421.495,713.752 377.5,716.5C 365.167,716.5 352.833,716.5 340.5,716.5C 218.635,706.839 123.802,651.506 56,550.5C -3.99725,450.537 -15.3306,345.203 22,234.5C 60.9527,133.881 130.453,63.3806 230.5,23C 266.148,9.74988 302.815,1.91654 340.5,-0.5 Z M 350.5,101.5 C 440.601,101.635 512.767,137.302 567,208.5C 617.049,282.18 627.882,361.347 599.5,446C 567.969,525.198 511.635,577.865 430.5,604C 333.834,628.21 249.334,606.377 177,538.5C 109.966,466.369 88.6329,382.369 113,286.5C 136.376,211.558 183.543,157.391 254.5,124C 285.274,110.683 317.274,103.183 350.5,101.5 Z M 347.5,213.5 C 407.769,211.877 453.602,236.544 485,287.5C 513.57,345.022 508.57,399.355 470,450.5C 423.173,500.831 367.34,514.331 302.5,491C 251.446,466.916 222.279,426.75 215,370.5C 212.633,310.724 236.467,264.891 286.5,233C 305.644,222.339 325.977,215.839 347.5,213.5 Z"/></g>
<g><path style="opacity:0.988" fill="#113e66" d="M 1645.5,97.5 C 1667.22,97.2236 1679.22,107.89 1681.5,129.5C 1679.94,148.73 1669.6,159.396 1650.5,161.5C 1625.93,158.038 1615.76,144.038 1620,119.5C 1624.4,107.254 1632.9,99.9207 1645.5,97.5 Z"/></g>
<g><path style="opacity:0.995" fill="#103e66" d="M 839.5,108.5 C 854.833,108.5 870.167,108.5 885.5,108.5C 885.5,233.167 885.5,357.833 885.5,482.5C 870.167,482.5 854.833,482.5 839.5,482.5C 839.5,357.833 839.5,233.167 839.5,108.5 Z"/></g>
<g><path style="opacity:0.994" fill="#113e66" d="M 346.5,143.5 C 434.059,142.181 500.559,178.514 546,252.5C 583.497,325.063 582.497,397.063 543,468.5C 497.082,539.383 431.582,573.883 346.5,572C 270.48,565.56 212.647,530.06 173,465.5C 141.129,406.715 136.129,345.715 158,282.5C 185.597,213.785 235.097,169.618 306.5,150C 319.821,146.84 333.154,144.674 346.5,143.5 Z M 347.5,213.5 C 325.977,215.839 305.644,222.339 286.5,233C 236.467,264.891 212.633,310.724 215,370.5C 222.279,426.75 251.446,466.916 302.5,491C 367.34,514.331 423.173,500.831 470,450.5C 508.57,399.355 513.57,345.022 485,287.5C 453.602,236.544 407.769,211.877 347.5,213.5 Z"/></g>
<g><path style="opacity:0.991" fill="#113e66" d="M 1073.5,200.5 C 1112.61,197.853 1147.61,208.353 1178.5,232C 1216.19,267.728 1231.69,311.562 1225,363.5C 1216.99,421.502 1185.49,460.336 1130.5,480C 1090.51,491.425 1051.84,488.092 1014.5,470C 981.892,450.987 960.725,423.154 951,386.5C 942.838,351.249 944.838,316.582 957,282.5C 979.912,232.621 1018.75,205.288 1073.5,200.5 Z M 1073.5,241.5 C 1126.29,238.506 1160.13,262.173 1175,312.5C 1181.24,341.063 1178.58,368.729 1167,395.5C 1146.82,430.679 1116.32,447.179 1075.5,445C 1027.84,438.002 1001,410.502 995,362.5C 990.942,334.218 995.609,307.551 1009,282.5C 1024.07,258.874 1045.57,245.208 1073.5,241.5 Z"/></g>
<g><path style="opacity:0.99" fill="#113e66" d="M 1388.5,200.5 C 1429.91,197.239 1464.74,210.573 1493,240.5C 1496.25,244.659 1499.25,248.992 1502,253.5C 1502.5,237.503 1502.67,221.503 1502.5,205.5C 1518.17,205.5 1533.83,205.5 1549.5,205.5C 1549.67,304.167 1549.5,402.834 1549,501.5C 1541.13,567.7 1504.3,606.2 1438.5,617C 1403.09,621.372 1369.43,615.705 1337.5,600C 1306.24,582.976 1288.24,556.809 1283.5,521.5C 1298.85,521.167 1314.18,521.501 1329.5,522.5C 1339.33,548.442 1357.66,565.276 1384.5,573C 1413.69,581.559 1441.36,578.226 1467.5,563C 1489.93,546.307 1501.43,523.807 1502,495.5C 1502.67,474.5 1502.67,453.5 1502,432.5C 1481.32,463.937 1452.15,481.77 1414.5,486C 1349.91,489.972 1304.74,462.472 1279,403.5C 1266.63,367.248 1265.3,330.581 1275,293.5C 1293.44,238.712 1331.28,207.712 1388.5,200.5 Z M 1397.5,241.5 C 1446.74,239.013 1479.91,260.68 1497,306.5C 1507.32,342.646 1502.66,376.646 1483,408.5C 1456.91,440.197 1423.74,451.363 1383.5,442C 1343.56,428.017 1321.4,399.851 1317,357.5C 1312.39,321.319 1322.56,290.152 1347.5,264C 1362.14,251.844 1378.81,244.344 1397.5,241.5 Z"/></g>
<g><path style="opacity:0.99" fill="#113e66" d="M 1869.5,200.5 C 1903.6,196.522 1934.27,204.689 1961.5,225C 1984.43,246.404 1996.59,272.904 1998,304.5C 1998.5,363.832 1998.67,423.166 1998.5,482.5C 1983.17,482.5 1967.83,482.5 1952.5,482.5C 1952.67,428.166 1952.5,373.832 1952,319.5C 1952.21,292.079 1941.71,269.912 1920.5,253C 1894.34,238.571 1867.34,236.904 1839.5,248C 1819.72,258.121 1806.89,273.954 1801,295.5C 1798.64,305.022 1797.31,314.688 1797,324.5C 1796.5,377.166 1796.33,429.832 1796.5,482.5C 1781.17,482.5 1765.83,482.5 1750.5,482.5C 1750.5,390.167 1750.5,297.833 1750.5,205.5C 1765.83,205.5 1781.17,205.5 1796.5,205.5C 1796.33,217.838 1796.5,230.171 1797,242.5C 1815.22,218.306 1839.38,204.306 1869.5,200.5 Z"/></g>
<g><path style="opacity:0.994" fill="#103e66" d="M 1626.5,205.5 C 1641.83,205.5 1657.17,205.5 1672.5,205.5C 1672.5,297.833 1672.5,390.167 1672.5,482.5C 1657.17,482.5 1641.83,482.5 1626.5,482.5C 1626.5,390.167 1626.5,297.833 1626.5,205.5 Z"/></g>
</svg>
